# xmcd
#
# Track frame offsets: 
#        150
#        20718
#        39008
#        60871
#        80262
#        100753
#        119621
#        144152
#        161007
#        179819
#        199405
#        219896
#        238973
#        256747
#
# Disc length: 3663 seconds
#
# Revision: 0
# Processed by: cddbd v1.5.2PL0 Copyright (c) Steve Scherf et al.
# Submitted via: ExactAudioCopy v1.3
#
DISCID=ba0e4d0e
DTITLE=Aki Kumar - Hindi Man Blues
DYEAR=2018
DGENRE=Blues, West Coast Blues
TTITLE0=Dum Maaro Dum
TTITLE1=Bollywood Blues
TTITLE2=Yeh Chaand Sa Roshan Chehra
TTITLE3=Sajan Re Jhoot Mat Bolo
TTITLE4=Hindi Man Blues - Dekhaa Naa
TTITLE5=All Bark No Bite
TTITLE6=Watermelon Man
TTITLE7=Dilruba
TTITLE8=Yeh Shaam Mastaani
TTITLE9=Aaja Aaja
TTITLE10=Ruxanna
TTITLE11=Voh Surmayi Shaam
TTITLE12=Jaane Kahaan Mera Jigar Gaya Ji
TTITLE13=Ajeeb Daastaan Hai Yeh
EXTD=
EXTT0=
EXTT1=
EXTT2=
EXTT3=
EXTT4=
EXTT5=
EXTT6=
EXTT7=
EXTT8=
EXTT9=
EXTT10=
EXTT11=
EXTT12=
EXTT13=
PLAYORDER=
